Coordinates
version=1
nRows=9
nColumns=24
inDegrees=yes

Units are S.I. units (second, meters, Newtons, ...)
Angles are in degrees.

endheader
time	pelvis_tilt	pelvis_list	pelvis_rotation	pelvis_tx	pelvis_ty	pelvis_tz	hip_flexion_r	hip_adduction_r	hip_rotation_r	knee_angle_r	ankle_angle_r	subtalar_angle_r	mtp_angle_r	hip_flexion_l	hip_adduction_l	hip_rotation_l	knee_angle_l	ankle_angle_l	subtalar_angle_l	mtp_angle_l	lumbar_extension	lumbar_bending	lumbar_rotation
      3.35000000	     24.58278429	      0.75560241	     -1.23887910	      0.54485445	      1.02465008	      0.02059158	    -31.60276758	     -6.40965165	    -11.59853771	    -34.56066052	      0.01659717	      2.08960629	     51.96073937	     -6.82617575	      1.75055794	     -7.48692573	    -17.72634092	      2.11876313	     -8.33689948	      5.95088688	    -38.34889462	     -1.89685062	      5.54632000
      3.35500000	     24.55837600	      0.85267096	     -1.39445428	      0.55029007	      1.02513333	      0.02000509	    -30.76051130	     -6.83212208	    -11.46638109	    -36.10003163	     -0.68149980	      1.54501006	     52.10776598	     -7.09455003	      1.90483117	     -7.70402779	    -17.85409052	      2.58876513	     -8.11211260	      5.82374105	    -38.28785558	     -2.11710979	      5.46682893
      3.36000000	     24.51763010	      0.93567418	     -1.55134816	      0.55566512	      1.02561028	      0.01945723	    -29.88562200	     -7.22620639	    -11.30073931	    -37.60657925	     -1.27567911	      0.96565584	     52.24964247	     -7.37058371	      2.04359374	     -7.93048159	    -17.92666518	      3.04330462	     -7.85680890	      5.67582322	    -38.21381664	     -2.32479756	      5.38444339
      3.36500000	     24.50864513	      1.03241001	     -1.71229431	      0.56101443	      1.02614355	      0.01894345	    -29.04846985	     -7.62217682	    -11.13340495	    -39.05578012	     -1.74446518	      0.38342842	     52.32520519	     -7.72676709	      2.20348145	     -8.14680428	    -17.90243215	      3.43745171	     -7.58534542	      5.55808592	    -38.17374575	     -2.54687891	      5.25640240
      3.37000000	     24.47873037	      1.06612243	     -1.86858737	      0.56625910	      1.02666063	      0.01849160	    -28.17075725	     -7.93358060	    -10.92151030	    -40.46129783	     -2.13546749	     -0.24843051	     52.38155133	     -8.04468445	      2.28248681	     -8.44056317	    -17.91068359	      3.89000768	     -7.28471271	      5.39933459	    -38.11840370	     -2.71170598	      5.18716501
      3.37500000	     24.46365105	      1.10053211	     -2.02112952	      0.57146802	      1.02722301	      0.01806418	    -27.31462538	     -8.22844344	    -10.71095938	    -41.80064941	     -2.41419696	     -0.86079731	     52.38451296	     -8.41257118	      2.36766461	     -8.70839092	    -17.84461994	      4.29104863	     -6.97262105	      5.22582498	    -38.08194142	     -2.87378119	      5.07996592
      3.38000000	     24.49496650	      1.11572205	     -2.15650079	      0.57667984	      1.02786330	      0.01769995	    -26.53373641	     -8.47496812	    -10.51057515	    -43.04389119	     -2.57789742	     -1.44949555	     52.24980207	     -8.84922812	      2.41685142	     -9.02712227	    -17.75785334	      4.85524507	     -6.40890809	      4.06760100	    -38.09336205	     -3.01303488	      4.92028014
      3.38500000	     24.41967901	      1.12908711	     -2.29383846	      0.58175980	      1.02839390	      0.01725716	    -25.59925455	     -8.71913874	    -10.30112737	    -44.28657914	     -2.66102839	     -2.00725675	     52.15972510	     -9.16849104	      2.49610517	     -9.21411073	    -17.63205268	      5.13036941	     -6.30451112	      3.98839147	    -38.00111306	     -3.13902883	      4.83405549
      3.39000000	     24.41291473	      1.10796940	     -2.41278519	      0.58681466	      1.02901569	      0.01688863	    -24.76524705	     -8.89724165	    -10.09804140	    -45.42371713	     -2.66985002	     -2.54082954	     52.01407632	     -9.57190325	      2.52193758	     -9.45141967	    -17.49770579	      5.47040730	     -6.00330320	      3.91842077	    -37.98459139	     -3.23002097	      4.71434795
